<svg xmlns="http://www.w3.org/2000/svg" width="430" height="430" style="width:100%;height:100%;transform:translate3d(0,0,0);content-visibility:visible" viewBox="0 0 430 430"><defs><clipPath id="s"><path d="M0 0h430v430H0z"/></clipPath><clipPath id="L"><path d="M0 0h430v430H0z"/></clipPath><clipPath id="M"><path d="M0 0h430v430H0z"/></clipPath><clipPath id="N"><path d="M0 0h430v430H0z"/></clipPath><clipPath id="H"><path d="M0 0h430v430H0z"/></clipPath><clipPath id="v"><path d="M0 0h430v430H0z"/></clipPath><clipPath id="C"><path d="M0 0h430v430H0z"/></clipPath><clipPath id="D"><path d="M0 0h430v430H0z"/></clipPath><clipPath id="w"><path d="M0 0h430v430H0z"/></clipPath><clipPath id="x"><path d="M0 0h430v430H0z"/></clipPath><clipPath id="u"><path d="M0 0h430v430H0z"/></clipPath><clipPath id="t"><path d="M0 0h430v430H0z"/></clipPath><path id="b" style="display:none"/><path id="d" style="display:none"/><path id="f" fill="red" d="M168 0c0 11.506-1.157 22.741-3.36 33.597l-.001.003C149.073 110.283 81.277 168 0 168c-92.784 0-168-75.216-168-168S-92.784-168 0-168c41.32 0 79.156 14.917 108.416 39.66L55.039-74.226C39.665-85.644 20.621-92.4 0-92.4c-51.031 0-92.4 41.369-92.4 92.4S-51.031 92.4 0 92.4c39.177 0 72.66-24.382 86.101-58.8H13.44v-67.2h151.2v.003A168.8 168.8 0 0 1 168 0" style="display:block" transform="translate(215 215)"/><path id="g" fill="red" d="M168 0c0 11.506-1.157 22.741-3.36 33.597l-.001.003C149.073 110.283 81.277 168 0 168c-92.784 0-168-75.216-168-168S-92.784-168 0-168c41.32 0 79.156 14.917 108.416 39.66L55.039-74.226C39.665-85.644 20.621-92.4 0-92.4c-51.031 0-92.4 41.369-92.4 92.4S-51.031 92.4 0 92.4c39.177 0 72.66-24.382 86.101-58.8H13.44v-67.2h151.2v.003A168.8 168.8 0 0 1 168 0" style="display:block" transform="translate(215 215)"/><path id="h" fill="red" d="M168 0c0 11.506-1.157 22.741-3.36 33.597l-.001.003C149.073 110.283 81.277 168 0 168c-92.784 0-168-75.216-168-168S-92.784-168 0-168c41.32 0 79.156 14.917 108.416 39.66L55.039-74.226C39.665-85.644 20.621-92.4 0-92.4c-51.031 0-92.4 41.369-92.4 92.4S-51.031 92.4 0 92.4c39.177 0 72.66-24.382 86.101-58.8H13.44v-67.2h151.2v.003A168.8 168.8 0 0 1 168 0" style="display:block" transform="translate(215 215)"/><path id="j" style="display:none"/><path id="l" style="display:none"/><path id="o" style="display:none"/><path id="q" style="display:none"/><path id="e" style="display:none"/><path id="m" style="display:none"/><path id="r" style="display:none"/><mask id="Q" mask-type="alpha" maskUnits="userSpaceOnUse"><g filter="url(#a)"><path fill="#fff" d="M0 0h430v430H0z" opacity="0"/><use xmlns:ns1="http://www.w3.org/1999/xlink" ns1:href="#b"/></g></mask><mask id="P" mask-type="alpha" maskUnits="userSpaceOnUse"><g filter="url(#c)"><path fill="#fff" d="M0 0h430v430H0z" opacity="0"/><use xmlns:ns2="http://www.w3.org/1999/xlink" ns2:href="#d"/></g></mask><mask id="O" mask-type="alpha"><use xmlns:ns3="http://www.w3.org/1999/xlink" ns3:href="#e"/></mask><mask id="K" mask-type="alpha"><use xmlns:ns4="http://www.w3.org/1999/xlink" ns4:href="#f"/></mask><mask id="J" mask-type="alpha"><use xmlns:ns5="http://www.w3.org/1999/xlink" ns5:href="#g"/></mask><mask id="I" mask-type="alpha"><use xmlns:ns6="http://www.w3.org/1999/xlink" ns6:href="#h"/></mask><mask id="G" mask-type="alpha" maskUnits="userSpaceOnUse"><g filter="url(#i)"><path fill="#fff" d="M0 0h430v430H0z" opacity="0"/><use xmlns:ns7="http://www.w3.org/1999/xlink" ns7:href="#j"/></g></mask><mask id="F" mask-type="alpha" maskUnits="userSpaceOnUse"><g filter="url(#k)"><path fill="#fff" d="M0 0h430v430H0z" opacity="0"/><use xmlns:ns8="http://www.w3.org/1999/xlink" ns8:href="#l"/></g></mask><mask id="E" mask-type="alpha"><use xmlns:ns9="http://www.w3.org/1999/xlink" ns9:href="#m"/></mask><mask id="B" mask-type="alpha" maskUnits="userSpaceOnUse"><g filter="url(#n)"><path fill="#fff" d="M0 0h430v430H0z" opacity="0"/><use xmlns:ns10="http://www.w3.org/1999/xlink" ns10:href="#o"/></g></mask><mask id="A" mask-type="alpha" maskUnits="userSpaceOnUse"><g filter="url(#p)"><path fill="#fff" d="M0 0h430v430H0z" opacity="0"/><use xmlns:ns11="http://www.w3.org/1999/xlink" ns11:href="#q"/></g></mask><mask id="y" mask-type="alpha"><use xmlns:ns12="http://www.w3.org/1999/xlink" ns12:href="#r"/></mask><filter id="a" width="100%" height="100%" x="0%" y="0%" filterUnits="objectBoundingBox"><feComponentTransfer in="SourceGraphic"><feFuncA tableValues="1.0 0.0" type="table"/></feComponentTransfer></filter><filter id="c" width="100%" height="100%" x="0%" y="0%" filterUnits="objectBoundingBox"><feComponentTransfer in="SourceGraphic"><feFuncA tableValues="1.0 0.0" type="table"/></feComponentTransfer></filter><filter id="i" width="100%" height="100%" x="0%" y="0%" filterUnits="objectBoundingBox"><feComponentTransfer in="SourceGraphic"><feFuncA tableValues="1.0 0.0" type="table"/></feComponentTransfer></filter><filter id="k" width="100%" height="100%" x="0%" y="0%" filterUnits="objectBoundingBox"><feComponentTransfer in="SourceGraphic"><feFuncA tableValues="1.0 0.0" type="table"/></feComponentTransfer></filter><filter id="n" width="100%" height="100%" x="0%" y="0%" filterUnits="objectBoundingBox"><feComponentTransfer in="SourceGraphic"><feFuncA tableValues="1.0 0.0" type="table"/></feComponentTransfer></filter><filter id="p" width="100%" height="100%" x="0%" y="0%" filterUnits="objectBoundingBox"><feComponentTransfer in="SourceGraphic"><feFuncA tableValues="1.0 0.0" type="table"/></feComponentTransfer></filter></defs><g clip-path="url(#s)"><g clip-path="url(#t)" style="display:none"><g style="display:none"><path class="quinary"/><path class="quinary" style="mix-blend-mode:multiply"/></g><g style="display:none"><path class="tertiary"/><path class="tertiary" style="mix-blend-mode:multiply"/></g><g style="display:none"><path class="secondary"/><path class="secondary" style="mix-blend-mode:multiply"/></g><g style="display:none"><path class="primary"/><path class="primary" style="mix-blend-mode:multiply"/></g><g style="display:none"><path class="quaternary"/><path class="quaternary" style="mix-blend-mode:multiply"/></g></g><g clip-path="url(#u)" style="display:none"><g style="display:none"><path class="quinary"/><path class="quinary" style="mix-blend-mode:multiply"/></g><g style="display:none"><path class="tertiary"/><path class="tertiary" style="mix-blend-mode:multiply"/></g><g style="display:none"><path class="secondary"/><path class="secondary" style="mix-blend-mode:multiply"/></g><g style="display:none"><path class="primary"/><path class="primary" style="mix-blend-mode:multiply"/></g><g style="display:none"><path class="quaternary"/><path class="quaternary" style="mix-blend-mode:multiply"/></g></g><g clip-path="url(#v)" style="display:none"><g clip-path="url(#w)" style="display:none"><g clip-path="url(#x)" mask="url(#y)" style="display:none"><g style="display:none"><path class="tertiary"/><path class="tertiary" style="mix-blend-mode:multiply"/></g><g style="display:none"><path class="secondary"/><path class="secondary" style="mix-blend-mode:multiply"/></g><g mask="url(#A)" style="display:none"><path class="quaternary"/><path class="quaternary" style="mix-blend-mode:multiply"/></g><g mask="url(#B)" style="display:none"><path class="primary"/><path class="primary" style="mix-blend-mode:multiply"/></g></g></g><g clip-path="url(#C)" style="display:none"><g clip-path="url(#D)" mask="url(#E)" style="display:none"><g style="display:none"><path class="tertiary"/><path class="tertiary" style="mix-blend-mode:multiply"/></g><g style="display:none"><path class="secondary"/><path class="secondary" style="mix-blend-mode:multiply"/></g><g mask="url(#F)" style="display:none"><path class="quaternary"/><path class="quaternary" style="mix-blend-mode:multiply"/></g><g mask="url(#G)" style="display:none"><path class="primary"/><path class="primary" style="mix-blend-mode:multiply"/></g></g></g></g><g clip-path="url(#H)" style="display:block"><g fill="#4AB3FC" mask="url(#I)" style="display:block"><path d="M383 215c0 11.506-1.157 22.741-3.36 33.597l-.001.003c-4.244 50.564-39.641 88.146-73.233 107.111l-47.848-59.201c19.302-10.336 34.506-27.329 42.543-47.91H231.44a3 3 0 0 1-3-3v-61.2a3 3 0 0 1 3-3l145.748.004a2.96 2.96 0 0 1 2.922 2.406A169 169 0 0 1 383 215" class="tertiary"/><path fill-opacity=".5" d="M58.28-54.247c0 45.322-27.906 87.554-63.07 110.821l-23.372-29.311C-8.86 16.927 6.344-.066 14.381-20.647H-55.28a3 3 0 0 1-3-3v-30.6z" class="tertiary" style="mix-blend-mode:multiply" transform="translate(286.72 269.114)"/></g><g fill="#2CA48D" mask="url(#J)" style="display:block"><path d="m269.571 289.571 53.804 53.803C294.12 368.096 256.301 382.999 215 382.999c-63.51 0-118.789-35.241-147.349-87.235l60.056-50.393c12.563 36.112 46.902 62.028 87.293 62.028 20.413 0 39.28-6.619 54.571-17.828" class="secondary"/><path fill-opacity=".5" d="M18.055 49.814c30.804 0 59.105-10.713 81.381-28.618l-26.81-26.81C57.335 5.595 38.468 12.214 18.055 12.214c-40.391 0-74.73-25.916-87.293-62.028l-30.198 25.339c20.864 43.922 65.631 74.289 117.491 74.289" class="secondary" style="mix-blend-mode:multiply" transform="translate(197.013 295.185)"/></g><g fill="#F14B00" style="display:block"><path d="m66.353 136.645 60.449 50.723C138.549 149.834 173.594 122.6 215 122.6c19.686 0 37.934 6.156 52.924 16.648 1.225.858 2.896.734 3.946-.331l49.271-49.952c1.227-1.244 1.137-3.271-.219-4.373C292.02 61.088 255.156 47 215 47c-64.487 0-120.487 36.333-148.647 89.645" class="primary"/><path fill-opacity=".5" d="m-69.684 51.184-30.458-25.557c20.327-45.278 65.809-76.811 118.656-76.811 30.918 0 59.314 10.793 81.628 28.817l-24.758 25.1c-1.05 1.065-2.721 1.189-3.946.331C56.448-7.428 38.2-13.584 18.514-13.584c-41.406 0-76.451 27.234-88.198 64.768" class="primary" style="mix-blend-mode:multiply" transform="translate(196.428 136.184)"/></g><g fill="#FFC638" mask="url(#K)" style="display:block"><path d="M47 215c0-28.297 6.996-54.96 19.353-78.354l60.449 50.723A92.4 92.4 0 0 0 122.6 215c0 10.64 1.799 20.859 5.108 30.371l-60.056 50.393C54.488 271.798 47 244.274 47 215" class="quaternary"/><path fill-opacity=".5" d="M-21.354-1.261c0 19.937 4.488 38.826 12.509 55.711l30.199-25.34c-3.309-9.512-5.108-19.731-5.108-30.371a92.4 92.4 0 0 1 4.202-27.631L-10.01-54.45c-7.289 16.236-11.344 34.239-11.344 53.189" class="quaternary" style="mix-blend-mode:multiply" transform="translate(106.604 216.205)"/></g></g><g clip-path="url(#L)" style="display:none"><g clip-path="url(#M)" style="display:none"><g clip-path="url(#N)" mask="url(#O)" style="display:none"><g style="display:none"><path class="tertiary"/><path class="tertiary" style="mix-blend-mode:multiply"/></g><g style="display:none"><path class="secondary"/><path class="secondary" style="mix-blend-mode:multiply"/></g><g mask="url(#P)" style="display:none"><path class="quaternary"/><path class="quaternary" style="mix-blend-mode:multiply"/></g><g mask="url(#Q)" style="display:none"><path class="primary"/><path class="primary" style="mix-blend-mode:multiply"/></g></g></g></g></g></svg>