<svg xmlns="http://www.w3.org/2000/svg" width="430" height="430" style="width:100%;height:100%;transform:translate3d(0,0,0);content-visibility:visible" viewBox="0 0 430 430"><defs><clipPath id="h"><path d="M0 0h430v430H0z"/></clipPath><clipPath id="w"><path d="M0 0h430v430H0z"/></clipPath><clipPath id="x"><path d="M0 0h430v430H0z"/></clipPath><clipPath id="u"><path d="M0 0h430v430H0z"/></clipPath><clipPath id="p"><path d="M0 0h430v430H0z"/></clipPath><clipPath id="s"><path d="M0 0h430v430H0z"/></clipPath><clipPath id="q"><path d="M0 0h430v430H0z"/></clipPath><clipPath id="l"><path d="M0 0h430v430H0z"/></clipPath><clipPath id="m"><path d="M0 0h430v430H0z"/></clipPath><clipPath id="i"><path d="M0 0h430v430H0z"/></clipPath><clipPath id="j"><path d="M0 0h430v430H0z"/></clipPath><path id="a" style="display:none"/><path id="b" fill="red" d="M375 75v280c0 11.038-8.962 20-20 20H75c-11.038 0-20-8.962-20-20V75c0-11.038 8.962-20 20-20h280c11.038 0 20 8.962 20 20" style="display:block"/><path id="c" style="display:none"/><path id="d" style="display:none"/><path id="e" style="display:none"/><path id="g" style="display:none"/><mask id="y" mask-type="alpha"><use xmlns:ns1="http://www.w3.org/1999/xlink" ns1:href="#a"/></mask><mask id="v" mask-type="alpha"><use xmlns:ns2="http://www.w3.org/1999/xlink" ns2:href="#b"/></mask><mask id="t" mask-type="alpha"><use xmlns:ns3="http://www.w3.org/1999/xlink" ns3:href="#c"/></mask><mask id="r" mask-type="alpha"><use xmlns:ns4="http://www.w3.org/1999/xlink" ns4:href="#d"/></mask><mask id="n" mask-type="alpha"><use xmlns:ns5="http://www.w3.org/1999/xlink" ns5:href="#e"/></mask><mask id="k" mask-type="alpha" maskUnits="userSpaceOnUse"><g filter="url(#f)"><path fill="#fff" d="M0 0h430v430H0z" opacity="0"/><use xmlns:ns6="http://www.w3.org/1999/xlink" ns6:href="#g"/></g></mask><filter id="f" width="100%" height="100%" x="0%" y="0%" filterUnits="objectBoundingBox"><feComponentTransfer in="SourceGraphic"><feFuncA tableValues="1.0 0.0" type="table"/></feComponentTransfer></filter></defs><g clip-path="url(#h)"><g clip-path="url(#i)" style="display:none"><g clip-path="url(#j)" style="display:none"><g mask="url(#k)" style="display:none"><path fill="none" class="primary"/></g><g fill="none" style="display:none"><path class="secondary"/><path class="primary"/></g><path fill="none" class="primary" style="display:none"/></g></g><g fill="none" clip-path="url(#l)" style="display:none"><g clip-path="url(#m)" mask="url(#n)" style="display:none"><g style="display:none"><path class="secondary"/><path class="secondary"/></g><g style="display:none"><path class="secondary"/><path class="secondary"/><path class="secondary"/></g><path class="secondary" style="display:none"/><path class="secondary" style="display:none"/><path class="secondary" style="display:none"/><path class="secondary" style="display:none"/></g><path class="primary" style="display:none"/></g><g clip-path="url(#p)" style="display:none"><g clip-path="url(#q)" mask="url(#r)" style="display:none"><path fill="none" class="secondary" style="display:none"/></g><g clip-path="url(#s)" mask="url(#t)" style="display:none"><path fill="none" class="secondary" style="display:none"/></g><path fill="none" class="primary" style="display:none"/></g><g clip-path="url(#u)" style="display:block"><g mask="url(#v)" style="display:block"><path fill="none" stroke="#2F80E8" stroke-linejoin="round" stroke-width="17.784" d="M285.082 160.09v-55.128h-39.017c-36.51 0-66.108 28.278-66.108 64.788v45.184h-39.846v55.11h39.846V385.1h55.236V270.044h39.908l15.065-55.11h-54.973l-.198-39.599c0-8.504 6.894-15.32 15.398-15.32z" class="secondary"/></g><path fill="none" stroke="#1B1091" stroke-linejoin="round" stroke-width="18" d="M160-140v280c0 11.038-8.962 20-20 20h-280c-11.038 0-20-8.962-20-20v-280c0-11.038 8.962-20 20-20h280c11.038 0 20 8.962 20 20z" class="primary" style="display:block" transform="translate(215 215)"/></g><g clip-path="url(#w)" style="display:none"><g clip-path="url(#x)" mask="url(#y)" style="display:none"><path fill="none" class="secondary" style="display:none"/></g><path fill="none" class="primary" style="display:none"/><path fill="none" class="primary" style="display:none"/></g></g></svg>